<?xml version="1.0" encoding="utf-8"?>
<!-- Generator: Adobe Illustrator 24.1.2, SVG Export Plug-In . SVG Version: 6.00 Build 0)  -->
<svg version="1.1" id="Calque_1" xmlns="http://www.w3.org/2000/svg" xmlns:xlink="http://www.w3.org/1999/xlink" x="0px" y="0px"
	 viewBox="0 0 128 128" style="enable-background:new 0 0 128 128;" xml:space="preserve">
<style type="text/css">
	.st0{fill:#226F00;}
</style>
<g transform="translate(0.000000,128.000000) scale(0.100000,-0.100000)">
	<path class="st0" d="M464,1261c-224-65-391-237-449-461C-11,700-2,519,33,420C97,240,247,93,430,29C510,1,694-9,780,10
		c240,53,444,259,490,497c19,98,9,263-22,350c-65,182-214,329-398,394C760,1283,554,1288,464,1261z M1000,855v-35h-50h-50V642
		c0-184-4-202-42-202c-17,0-18,14-18,190v190h-35h-35V581c0-209-2-240-16-245c-27-10-314-7-335,4c-18,10-19,24-19,245v235h-60h-60
		v35v35h360h360V855z"/>
	<path class="st0" d="M570,746c0-8-9-17-19-21c-43-13-71-46-71-81c0-46,28-71,87-80c58-8,83-20,83-39c0-36-92-44-119-11
		c-12,14-47,11-57-5c-10-17,16-47,56-63c22-9,40-23,40-31c0-10,10-15,30-15c23,0,30,4,30,20c0,11,6,20,13,20c6,0,25,10,41,23
		c22,18,28,31,28,61c0,54-26,77-104,91c-52,9-63,14-63,31c0,15,8,20,37,22c20,2,47-2,58-8c26-14,62-3,58,17c-2,9-18,23-35,32
		c-18,9-33,24-33,34c0,12-8,17-30,17C581,760,570,755,570,746z"/>
</g>
</svg>
