<?xml version="1.0" encoding="utf-8"?>
<!-- Generator: Adobe Illustrator 24.1.2, SVG Export Plug-In . SVG Version: 6.00 Build 0)  -->
<svg version="1.1" id="Calque_1" xmlns="http://www.w3.org/2000/svg" xmlns:xlink="http://www.w3.org/1999/xlink" x="0px" y="0px"
	 viewBox="0 0 128 128" style="enable-background:new 0 0 128 128;" xml:space="preserve">
<style type="text/css">
	.st0{fill:#226F00;}
</style>
<g transform="translate(0.000000,128.000000) scale(0.100000,-0.100000)">
	<path class="st0" d="M477,1264c-215-52-411-249-462-465c-19-82-19-236,0-318C67,262,262,67,481,15c82-19,236-19,318,0
		c166,40,329,167,409,321c52,102,72,183,72,304s-20,202-72,304c-80,154-243,281-409,321C719,1283,555,1283,477,1264z M780,1195
		c197-52,363-218,415-415c19-70,19-210,0-280c-52-197-218-363-415-415c-70-19-210-19-280,0C303,137,137,303,85,500
		c-19,70-19,210,0,280c52,195,217,361,411,415C562,1213,712,1213,780,1195z"/>
	<path class="st0" d="M811,953c-72-79-86-102-80-139c1-3-11-18-25-33c-20-21-23-30-14-39c18-18,32-15,56,11c14,15,22,36,22,57
		c0,30,11,46,81,116c57,57,80,87,76,98C915,1054,891,1040,811,953z"/>
	<path class="st0" d="M305,990c-52-100,29-264,208-419c75-66,92-74,116-61c40,21,53,13,49-30c-3-39-1-43,94-137c89-89,101-97,134-96
		c46,1,73,27,81,77l6,38L664,691c-181,181-332,329-336,329S314,1007,305,990z M941,316c-5-12-19-22-33-24c-21-3-40,13-104,84
		c-44,47-78,91-76,97s1,26-3,45c-7,39-39,55-84,42c-27-8-37-4-79,29c-117,93-221,237-229,319l-5,47l310-309C904,381,947,334,941,316
		z"/>
	<path class="st0" d="M945,830c-70-70-84-80-116-80c-24,0-42-7-57-23c-25-27-27-40-9-56c11-8,18-6,31,8c10,11,37,23,59,27
		c35,5,57,21,125,87c79,77,95,108,62,115C1032,909,989,874,945,830z"/>
	<path class="st0" d="M356,459c-81-84-86-93-86-133c0-56,22-76,81-76c43,0,48,3,139,95c90,90,94,96,77,112c-16,17-22,13-110-75
		c-92-91-128-111-141-76c-11,29-6,36,80,125c59,59,85,93,81,103C465,564,442,550,356,459z"/>
</g>
</svg>
