<?xml version="1.0" encoding="utf-8"?>
<!-- Generator: Adobe Illustrator 24.1.2, SVG Export Plug-In . SVG Version: 6.00 Build 0)  -->
<svg version="1.1" id="Calque_1" xmlns="http://www.w3.org/2000/svg" xmlns:xlink="http://www.w3.org/1999/xlink" x="0px" y="0px"
	 viewBox="0 0 980 980" style="enable-background:new 0 0 980 980;" xml:space="preserve">
<style type="text/css">
	.st0{fill:#226F00;}
</style>
<g transform="translate(0.000000,980.000000) scale(0.100000,-0.100000)">
	<path class="st0" d="M4560,9789c-1035-75-1998-463-2800-1128c-150-123-501-475-622-621C257,6972-132,5637,40,4275
		c119-934,501-1801,1124-2545c98-117,370-393,496-504C2988,60,4818-305,6485,264c895,305,1700,879,2281,1627
		c735,946,1100,2126,1024,3314c-70,1094-491,2109-1216,2935c-112,128-386,398-509,501c-763,642-1665,1026-2665,1134
		C5226,9794,4736,9802,4560,9789z M3531,8090c116-161,187-353,176-475c-10-108-62-193-144-238c-65-35-122-42-211-27
		c-152,25-233,113-235,256c-1,107,7,125,179,394c30,47,69,120,86,162l32,78l30-37C3461,8183,3500,8132,3531,8090z M2554,7955
		c229-283,420-604,506-850c146-418,100-771-130-995c-159-156-341-211-599-181c-211,25-359,87-466,195c-111,113-167,269-168,471
		c-1,210,56,342,310,725c235,354,303,477,373,677c17,48,33,95,36,103C2422,8117,2431,8108,2554,7955z M6651,6308c44-22,92-56,120-85
		c34-35,138-210,386-648c187-330,348-614,357-632c17-35,22-114,7-141c-8-15,2-24,63-55c113-58,198-150,248-268l23-54l3-910
		c2-627,0-921-8-947c-13-46-89-115-139-125c-20-5-169-8-331-8h-295l-48,28c-26,15-60,46-74,69c-24,35-28,53-31,134l-4,94H5035H3143
		l-5-88c-6-96-19-131-69-180c-55-54-75-57-404-57c-295,0-301,0-348,24c-53,26-88,67-107,125c-10,30-11,232-5,925c7,828,9,890,26,947
		c38,124,141,240,267,299c49,23,52,27,45,52c-4,16-7,42-6,59c1,20,121,244,346,645c189,338,352,629,361,646c35,69,128,139,231,175
		c47,16,148,17,1576,15l1525-2L6651,6308z"/>
	<path class="st0" d="M3547,6032c-20-12-107-159-316-532l-288-515l1048-3c577-1,1521-1,2098,0l1049,3l-288,510
		c-220,389-296,515-321,533l-32,22H5036C3664,6050,3573,6049,3547,6032z"/>
	<path class="st0" d="M2883,4231c-139-51-229-159-252-301c-26-161,64-326,217-398c51-24,69-27,167-27c101,0,115,2,168,28
		c74,37,147,110,184,184c25,51,28,69,28,153s-3,102-29,157c-35,77-113,154-193,191C3095,4253,2960,4260,2883,4231z"/>
	<path class="st0" d="M6945,4237c-130-43-228-147-261-277c-42-167,43-343,204-422c63-31,73-33,177-33c101,0,114,2,167,29
		c77,39,144,108,182,186c28,58,31,75,31,155c0,76-4,99-27,147c-37,80-107,152-186,190c-56,28-77,33-156,35
		C7020,4249,6970,4245,6945,4237z"/>
	<path class="st0" d="M3754,3916c-37-37-43-70-20-115c8-15,26-32,41-39c20-9,329-12,1279-12h1254l31,29c34,32,40,70,19,116
		c-26,58,42,55-1319,55H3788L3754,3916z"/>
</g>
</svg>
