<?xml version="1.0" encoding="utf-8"?>
<!-- Generator: Adobe Illustrator 24.1.2, SVG Export Plug-In . SVG Version: 6.00 Build 0)  -->
<svg version="1.1" id="Calque_1" xmlns="http://www.w3.org/2000/svg" xmlns:xlink="http://www.w3.org/1999/xlink" x="0px" y="0px"
	 viewBox="0 0 128 130" style="enable-background:new 0 0 128 130;" xml:space="preserve">
<style type="text/css">
	.st0{fill:#226F00;}
</style>
<g transform="translate(0.000000,130.000000) scale(0.100000,-0.100000)">
	<path class="st0" d="M600,650V0h30h30v650v650h-30h-30V650z"/>
	<path class="st0" d="M186,1131c-45-30-68-75-68-130c0-60,22-103,67-131c50-31,142-25,181,11c73,68,73,170,0,239
		C329,1154,229,1160,186,1131z M305,1086c39-17,55-42,55-86s-16-69-56-86c-47-20-97,1-121,50c-16,34-16,38,0,72c11,21,30,41,50,49
		C273,1103,265,1102,305,1086z"/>
	<path class="st0" d="M945,1126c-101-44-123-182-40-255c103-90,255-22,255,116c0,57-29,104-80,131C1030,1143,989,1145,945,1126z
		 M1071,1051c21-22,29-39,29-66c0-44-45-95-84-95c-57,0-106,46-106,101c0,11,15,36,34,55C988,1090,1030,1092,1071,1051z"/>
	<path class="st0" d="M62,865C20,847,0,800,0,721c0-64,17-158,29-165c4-3,18-2,30,1c20,5,22,10,16,37c-30,145-24,201,26,219
		c22,9,29,18,29,39C130,884,114,887,62,865z"/>
	<path class="st0" d="M410,850c0-22,5-30,18-30c52,0,72-78,48-184c-9-38-15-70-14-71c2-1,15-5,30-9c26-6,27-4,39,51
		c29,132,10,226-51,258C432,890,410,885,410,850z"/>
	<path class="st0" d="M782,716l-51-111l25-13c14-8,27-12,29-10c4,3,105,219,105,223c0,2-13,8-29,13l-28,10L782,716z"/>
	<path class="st0" d="M1155,818c-11-6-21-12-23-13c-5-4,97-220,105-222c5-2,18,3,28,11c19,14,18,17-24,108c-24,51-45,101-48,111
		C1187,833,1182,833,1155,818z"/>
	<path class="st0" d="M130,528c0-231,2-256,19-284c23-37,64-51,95-31c17,11,25,11,46,0c29-15,56-9,88,20c22,20,22,24,22,284v263h-25
		h-25V530c0-137-2-250-4-250s-11-3-20-6c-10-4-21,6-34,32l-19,38l-28-42c-22-33-31-40-41-31c-11,9-14,63-14,260v249h-30h-30V528z"/>
	<path class="st0" d="M815,538c-22-51-41-96-43-100s30-8,72-8h76V315V200h30h30v145v145h-60h-60l26,57c23,54,24,58,8,70
		c-10,7-23,13-29,13S836,589,815,538z"/>
	<path class="st0" d="M1128,619c-16-9-16-14,7-66c14-30,25-57,25-59s-27-4-60-4h-60V345V200h30h30v115v115h75c41,0,75,3,75,6
		c0,19-85,194-94,194C1150,630,1137,625,1128,619z"/>
</g>
</svg>
